<svg xmlns="http://www.w3.org/2000/svg" viewBox="0 0 960 500" width="960" height="500">
  <defs>
    <style>
    </style>
    <filter id="shadow" x="-4%" y="-4%" width="108%" height="116%">
      <feDropShadow dx="0" dy="2" stdDeviation="4" flood-color="#000000" flood-opacity="0.35"/>
    </filter>
    <filter id="shadow-sm" x="-2%" y="-4%" width="104%" height="112%">
      <feDropShadow dx="0" dy="1" stdDeviation="2" flood-color="#000000" flood-opacity="0.25"/>
    </filter>
  </defs>

  <!-- Canvas -->
  <rect x="0" y="0" width="960" height="500" fill="#0A0E1A"/>

  <!-- Title -->
  <text x="480" y="44" text-anchor="middle" fill="#7dd3fc" font-family="JetBrains Mono, monospace" font-weight="600" font-size="24">Cowork changed how I think about AI</text>

  <!-- Panels -->
  <rect x="60" y="92" width="360" height="320" rx="14" ry="14" fill="#1e293b" filter="url(#shadow)"/>
  <rect x="540" y="92" width="360" height="320" rx="14" ry="14" fill="#1AA684" filter="url(#shadow)"/>

  <!-- Panel headers -->
  <text x="92" y="126" text-anchor="start" fill="#64748b" font-family="JetBrains Mono, monospace" font-weight="600" font-size="13">Then: chat tab</text>
  <text x="572" y="126" text-anchor="start" fill="#ffffff" font-family="JetBrains Mono, monospace" font-weight="600" font-size="13">Now: Cowork sidecar</text>

  <!-- Left panel: callouts -->
  <!-- Callout 1 -->
  <rect x="92" y="154" width="296" height="62" rx="10" ry="10" fill="#0A0E1A" opacity="0.62" stroke="#334155" stroke-width="1" filter="url(#shadow-sm)"/>
  <rect x="92" y="154" width="6" height="62" rx="3" ry="3" fill="#c4b820"/>
  <text x="112" y="182" text-anchor="start" fill="#ffffff" font-family="JetBrains Mono, monospace" font-weight="600" font-size="15">cold start every time</text>
  <text x="112" y="202" text-anchor="start" fill="#94a3b8" font-family="Manrope, sans-serif" font-weight="400" font-size="11">Nothing persists. Every prompt begins at zero.</text>

  <!-- Callout 2 -->
  <rect x="92" y="248" width="296" height="62" rx="10" ry="10" fill="#0A0E1A" opacity="0.62" stroke="#334155" stroke-width="1" filter="url(#shadow-sm)"/>
  <rect x="92" y="248" width="6" height="62" rx="3" ry="3" fill="#7ab830"/>
  <text x="112" y="276" text-anchor="start" fill="#ffffff" font-family="JetBrains Mono, monospace" font-weight="600" font-size="15">context dump friction</text>
  <text x="112" y="296" text-anchor="start" fill="#94a3b8" font-family="Manrope, sans-serif" font-weight="400" font-size="11">You paste screenshots, links, and summaries.</text>

  <!-- Callout 3 -->
  <rect x="92" y="342" width="296" height="62" rx="10" ry="10" fill="#0A0E1A" opacity="0.62" stroke="#334155" stroke-width="1" filter="url(#shadow-sm)"/>
  <rect x="92" y="342" width="6" height="62" rx="3" ry="3" fill="#3cb856"/>
  <text x="112" y="370" text-anchor="start" fill="#ffffff" font-family="JetBrains Mono, monospace" font-weight="600" font-size="15">ask fewer, bigger questions</text>
  <text x="112" y="390" text-anchor="start" fill="#94a3b8" font-family="Manrope, sans-serif" font-weight="400" font-size="11">Because setup costs make small asks feel wasteful.</text>

  <!-- Center divider: Cowork shift arrow -->
  <rect x="440" y="92" width="80" height="320" rx="14" ry="14" fill="#0A0E1A" opacity="0.35" stroke="#334155" stroke-width="1"/>
  <text x="480" y="142" text-anchor="middle" fill="#64748b" font-family="JetBrains Mono, monospace" font-weight="600" font-size="11">Cowork shift</text>
  <line x1="450" y1="210" x2="510" y2="210" stroke="#7dd3fc" stroke-width="3"/>
  <polygon points="520,210 508,202 508,218" fill="#7dd3fc"/>
  <text x="480" y="246" text-anchor="middle" fill="#94a3b8" font-family="Manrope, sans-serif" font-weight="400" font-size="11">from tab &#8594; sidecar</text>
  <text x="480" y="268" text-anchor="middle" fill="#94a3b8" font-family="Manrope, sans-serif" font-weight="400" font-size="11">from asking &#8594; seeing</text>

  <!-- Right panel: badges -->
  <!-- Badge 1 -->
  <rect x="572" y="154" width="296" height="62" rx="10" ry="10" fill="#7dd3fc" stroke="#0ea5e9" stroke-width="1" filter="url(#shadow-sm)"/>
  <text x="592" y="182" text-anchor="start" fill="#0A0E1A" font-family="JetBrains Mono, monospace" font-weight="600" font-size="15">sees current document/email/tab</text>
  <text x="592" y="202" text-anchor="start" fill="#0A0E1A" opacity="0.74" font-family="Manrope, sans-serif" font-weight="500" font-size="11">Grounded in what's already on-screen.</text>

  <!-- Badge 2 -->
  <rect x="572" y="248" width="296" height="62" rx="10" ry="10" fill="#22a86e" stroke="#1a7a52" stroke-width="1" filter="url(#shadow-sm)"/>
  <text x="592" y="276" text-anchor="start" fill="#ffffff" font-family="JetBrains Mono, monospace" font-weight="600" font-size="15">zero setup</text>
  <text x="592" y="296" text-anchor="start" fill="#ffffff" opacity="0.84" font-family="Manrope, sans-serif" font-weight="400" font-size="11">No re-explaining. No "here's the context".</text>

  <!-- Badge 3 -->
  <rect x="572" y="342" width="296" height="62" rx="10" ry="10" fill="#1B134D" opacity="0.96" stroke="#334155" stroke-width="1" filter="url(#shadow-sm)"/>
  <rect x="572" y="342" width="6" height="62" rx="3" ry="3" fill="#1AA684"/>
  <text x="592" y="370" text-anchor="start" fill="#ffffff" font-family="JetBrains Mono, monospace" font-weight="600" font-size="15">micro-questions encouraged</text>
  <text x="592" y="390" text-anchor="start" fill="#94a3b8" font-family="Manrope, sans-serif" font-weight="400" font-size="11">Tiny checks, fast iterations, steady momentum.</text>

  <!-- Footer strip -->
  <rect x="60" y="430" width="840" height="50" rx="12" ry="12" fill="#0A0E1A" opacity="0.55" stroke="#334155" stroke-width="1"/>
  <rect x="60" y="430" width="840" height="6" rx="3" ry="3" fill="#7dd3fc"/>
  <text x="480" y="462" text-anchor="middle" fill="#ffffff" font-family="JetBrains Mono, monospace" font-weight="600" font-size="15">ambient awareness &#8594; constant leverage</text>
</svg>
